<mxfile host="app.diagrams.net" modified="2022-10-23T18:29:52.393Z" agent="5.0 (Macintosh; Intel Mac OS X 10_15_7) AppleWebKit/537.36 (KHTML, like Gecko) Chrome/106.0.0.0 Safari/537.36" etag="i_vobWTfQ56m7aZaS7af" version="20.5.1" type="github">
  <diagram id="vdNYV9QljK_PprWZYiV6" name="Page-1">
    <mxGraphModel dx="845" dy="2617" grid="1" gridSize="10" guides="1" tooltips="1" connect="1" arrows="1" fold="1" page="1" pageScale="1" pageWidth="850" pageHeight="1100" math="0" shadow="0">
      <root>
        <mxCell id="0" />
        <mxCell id="1" parent="0" />
        <mxCell id="OYqPRCBFjNp_nbiLwVbj-1" value="Splash Screen" style="rounded=0;whiteSpace=wrap;html=1;" parent="1" vertex="1">
          <mxGeometry x="130" y="50" width="260" height="380" as="geometry" />
        </mxCell>
        <mxCell id="OYqPRCBFjNp_nbiLwVbj-10" value="yes" style="edgeStyle=orthogonalEdgeStyle;rounded=0;orthogonalLoop=1;jettySize=auto;html=1;" parent="1" source="OYqPRCBFjNp_nbiLwVbj-6" target="OYqPRCBFjNp_nbiLwVbj-9" edge="1">
          <mxGeometry relative="1" as="geometry" />
        </mxCell>
        <mxCell id="OYqPRCBFjNp_nbiLwVbj-14" value="No" style="edgeStyle=orthogonalEdgeStyle;rounded=0;orthogonalLoop=1;jettySize=auto;html=1;" parent="1" source="OYqPRCBFjNp_nbiLwVbj-6" target="OYqPRCBFjNp_nbiLwVbj-13" edge="1">
          <mxGeometry relative="1" as="geometry" />
        </mxCell>
        <mxCell id="OYqPRCBFjNp_nbiLwVbj-6" value="logged in" style="rhombus;whiteSpace=wrap;html=1;" parent="1" vertex="1">
          <mxGeometry x="460" y="180" width="80" height="80" as="geometry" />
        </mxCell>
        <mxCell id="OYqPRCBFjNp_nbiLwVbj-8" value="" style="endArrow=none;html=1;rounded=0;entryX=0;entryY=0.5;entryDx=0;entryDy=0;" parent="1" target="OYqPRCBFjNp_nbiLwVbj-6" edge="1">
          <mxGeometry width="50" height="50" relative="1" as="geometry">
            <mxPoint x="390" y="220" as="sourcePoint" />
            <mxPoint x="440" y="170" as="targetPoint" />
          </mxGeometry>
        </mxCell>
        <mxCell id="OYqPRCBFjNp_nbiLwVbj-16" value="User Type" style="edgeStyle=orthogonalEdgeStyle;rounded=0;orthogonalLoop=1;jettySize=auto;html=1;" parent="1" source="OYqPRCBFjNp_nbiLwVbj-9" target="OYqPRCBFjNp_nbiLwVbj-15" edge="1">
          <mxGeometry relative="1" as="geometry" />
        </mxCell>
        <mxCell id="OYqPRCBFjNp_nbiLwVbj-9" value="" style="rhombus;whiteSpace=wrap;html=1;" parent="1" vertex="1">
          <mxGeometry x="460" y="20" width="80" height="80" as="geometry" />
        </mxCell>
        <mxCell id="OYqPRCBFjNp_nbiLwVbj-13" value="" style="rhombus;whiteSpace=wrap;html=1;" parent="1" vertex="1">
          <mxGeometry x="460" y="340" width="80" height="80" as="geometry" />
        </mxCell>
        <mxCell id="OYqPRCBFjNp_nbiLwVbj-20" value="Seller" style="edgeStyle=orthogonalEdgeStyle;rounded=0;orthogonalLoop=1;jettySize=auto;html=1;" parent="1" source="OYqPRCBFjNp_nbiLwVbj-15" target="OYqPRCBFjNp_nbiLwVbj-19" edge="1">
          <mxGeometry relative="1" as="geometry" />
        </mxCell>
        <mxCell id="OYqPRCBFjNp_nbiLwVbj-22" value="Buyer" style="edgeStyle=orthogonalEdgeStyle;rounded=0;orthogonalLoop=1;jettySize=auto;html=1;" parent="1" source="OYqPRCBFjNp_nbiLwVbj-15" target="OYqPRCBFjNp_nbiLwVbj-21" edge="1">
          <mxGeometry relative="1" as="geometry" />
        </mxCell>
        <mxCell id="OYqPRCBFjNp_nbiLwVbj-15" value="" style="rhombus;whiteSpace=wrap;html=1;" parent="1" vertex="1">
          <mxGeometry x="620" y="20" width="80" height="80" as="geometry" />
        </mxCell>
        <mxCell id="OYqPRCBFjNp_nbiLwVbj-24" value="" style="edgeStyle=orthogonalEdgeStyle;rounded=0;orthogonalLoop=1;jettySize=auto;html=1;" parent="1" source="OYqPRCBFjNp_nbiLwVbj-19" target="OYqPRCBFjNp_nbiLwVbj-23" edge="1">
          <mxGeometry relative="1" as="geometry" />
        </mxCell>
        <mxCell id="OYqPRCBFjNp_nbiLwVbj-19" value="" style="rhombus;whiteSpace=wrap;html=1;" parent="1" vertex="1">
          <mxGeometry x="620" y="-140" width="80" height="80" as="geometry" />
        </mxCell>
        <mxCell id="OYqPRCBFjNp_nbiLwVbj-21" value="" style="rhombus;whiteSpace=wrap;html=1;" parent="1" vertex="1">
          <mxGeometry x="780" y="20" width="80" height="80" as="geometry" />
        </mxCell>
        <mxCell id="OYqPRCBFjNp_nbiLwVbj-51" value="" style="edgeStyle=orthogonalEdgeStyle;rounded=0;orthogonalLoop=1;jettySize=auto;html=1;" parent="1" source="OYqPRCBFjNp_nbiLwVbj-23" target="OYqPRCBFjNp_nbiLwVbj-50" edge="1">
          <mxGeometry relative="1" as="geometry" />
        </mxCell>
        <mxCell id="OYqPRCBFjNp_nbiLwVbj-23" value="" style="whiteSpace=wrap;html=1;" parent="1" vertex="1">
          <mxGeometry x="520" y="-620" width="280" height="410" as="geometry" />
        </mxCell>
        <mxCell id="OYqPRCBFjNp_nbiLwVbj-26" value="Home" style="text;html=1;strokeColor=none;fillColor=none;align=center;verticalAlign=middle;whiteSpace=wrap;rounded=0;" parent="1" vertex="1">
          <mxGeometry x="550" y="-250" width="60" height="30" as="geometry" />
        </mxCell>
        <mxCell id="OYqPRCBFjNp_nbiLwVbj-27" value="Profile" style="text;html=1;strokeColor=none;fillColor=none;align=center;verticalAlign=middle;whiteSpace=wrap;rounded=0;" parent="1" vertex="1">
          <mxGeometry x="710" y="-250" width="60" height="30" as="geometry" />
        </mxCell>
        <mxCell id="OYqPRCBFjNp_nbiLwVbj-30" value="Home" style="ellipse;whiteSpace=wrap;html=1;" parent="1" vertex="1">
          <mxGeometry x="530" y="-250" width="120" height="30" as="geometry" />
        </mxCell>
        <mxCell id="OYqPRCBFjNp_nbiLwVbj-31" value="All Product Requests&lt;br&gt;" style="text;html=1;strokeColor=none;fillColor=none;align=center;verticalAlign=middle;whiteSpace=wrap;rounded=0;" parent="1" vertex="1">
          <mxGeometry x="560" y="-667" width="180" height="30" as="geometry" />
        </mxCell>
        <mxCell id="OYqPRCBFjNp_nbiLwVbj-65" value="" style="edgeStyle=orthogonalEdgeStyle;rounded=0;orthogonalLoop=1;jettySize=auto;html=1;" parent="1" source="OYqPRCBFjNp_nbiLwVbj-32" target="OYqPRCBFjNp_nbiLwVbj-64" edge="1">
          <mxGeometry relative="1" as="geometry" />
        </mxCell>
        <mxCell id="OYqPRCBFjNp_nbiLwVbj-32" value="" style="rounded=1;whiteSpace=wrap;html=1;" parent="1" vertex="1">
          <mxGeometry x="540" y="-570" width="240" height="40" as="geometry" />
        </mxCell>
        <mxCell id="OYqPRCBFjNp_nbiLwVbj-33" value="" style="ellipse;whiteSpace=wrap;html=1;" parent="1" vertex="1">
          <mxGeometry x="550" y="-565" width="40" height="30" as="geometry" />
        </mxCell>
        <mxCell id="OYqPRCBFjNp_nbiLwVbj-34" value="Product a" style="text;html=1;strokeColor=none;fillColor=none;align=center;verticalAlign=middle;whiteSpace=wrap;rounded=0;" parent="1" vertex="1">
          <mxGeometry x="600" y="-565" width="60" height="30" as="geometry" />
        </mxCell>
        <mxCell id="OYqPRCBFjNp_nbiLwVbj-36" value="" style="rounded=1;whiteSpace=wrap;html=1;" parent="1" vertex="1">
          <mxGeometry x="540" y="-520" width="240" height="40" as="geometry" />
        </mxCell>
        <mxCell id="OYqPRCBFjNp_nbiLwVbj-37" value="" style="ellipse;whiteSpace=wrap;html=1;" parent="1" vertex="1">
          <mxGeometry x="550" y="-515" width="40" height="30" as="geometry" />
        </mxCell>
        <mxCell id="OYqPRCBFjNp_nbiLwVbj-38" value="Product a" style="text;html=1;strokeColor=none;fillColor=none;align=center;verticalAlign=middle;whiteSpace=wrap;rounded=0;" parent="1" vertex="1">
          <mxGeometry x="600" y="-515" width="60" height="30" as="geometry" />
        </mxCell>
        <mxCell id="OYqPRCBFjNp_nbiLwVbj-39" value="" style="rounded=1;whiteSpace=wrap;html=1;" parent="1" vertex="1">
          <mxGeometry x="540" y="-470" width="240" height="40" as="geometry" />
        </mxCell>
        <mxCell id="OYqPRCBFjNp_nbiLwVbj-40" value="" style="ellipse;whiteSpace=wrap;html=1;" parent="1" vertex="1">
          <mxGeometry x="550" y="-465" width="40" height="30" as="geometry" />
        </mxCell>
        <mxCell id="OYqPRCBFjNp_nbiLwVbj-41" value="Product a" style="text;html=1;strokeColor=none;fillColor=none;align=center;verticalAlign=middle;whiteSpace=wrap;rounded=0;" parent="1" vertex="1">
          <mxGeometry x="600" y="-465" width="60" height="30" as="geometry" />
        </mxCell>
        <mxCell id="OYqPRCBFjNp_nbiLwVbj-42" value="Accept" style="rounded=1;whiteSpace=wrap;html=1;" parent="1" vertex="1">
          <mxGeometry x="680" y="-557" width="40" height="15" as="geometry" />
        </mxCell>
        <mxCell id="OYqPRCBFjNp_nbiLwVbj-43" value="Reject" style="rounded=1;whiteSpace=wrap;html=1;" parent="1" vertex="1">
          <mxGeometry x="727" y="-556" width="40" height="15" as="geometry" />
        </mxCell>
        <mxCell id="OYqPRCBFjNp_nbiLwVbj-46" value="Accept" style="rounded=1;whiteSpace=wrap;html=1;" parent="1" vertex="1">
          <mxGeometry x="679" y="-506" width="40" height="15" as="geometry" />
        </mxCell>
        <mxCell id="OYqPRCBFjNp_nbiLwVbj-47" value="Reject" style="rounded=1;whiteSpace=wrap;html=1;" parent="1" vertex="1">
          <mxGeometry x="726" y="-505" width="40" height="15" as="geometry" />
        </mxCell>
        <mxCell id="OYqPRCBFjNp_nbiLwVbj-48" value="Accept" style="rounded=1;whiteSpace=wrap;html=1;" parent="1" vertex="1">
          <mxGeometry x="680" y="-458" width="40" height="15" as="geometry" />
        </mxCell>
        <mxCell id="OYqPRCBFjNp_nbiLwVbj-49" value="Reject" style="rounded=1;whiteSpace=wrap;html=1;" parent="1" vertex="1">
          <mxGeometry x="727" y="-457" width="40" height="15" as="geometry" />
        </mxCell>
        <mxCell id="OYqPRCBFjNp_nbiLwVbj-50" value="" style="whiteSpace=wrap;html=1;" parent="1" vertex="1">
          <mxGeometry x="880" y="-620" width="280" height="410" as="geometry" />
        </mxCell>
        <mxCell id="OYqPRCBFjNp_nbiLwVbj-52" value="Profile" style="text;html=1;strokeColor=none;fillColor=none;align=center;verticalAlign=middle;whiteSpace=wrap;rounded=0;fontStyle=1" parent="1" vertex="1">
          <mxGeometry x="1080" y="-240" width="60" height="30" as="geometry" />
        </mxCell>
        <mxCell id="OYqPRCBFjNp_nbiLwVbj-53" value="profile" style="ellipse;whiteSpace=wrap;html=1;" parent="1" vertex="1">
          <mxGeometry x="1028" y="-246" width="120" height="30" as="geometry" />
        </mxCell>
        <mxCell id="OYqPRCBFjNp_nbiLwVbj-54" value="Home" style="text;html=1;strokeColor=none;fillColor=none;align=center;verticalAlign=middle;whiteSpace=wrap;rounded=0;" parent="1" vertex="1">
          <mxGeometry x="920" y="-240" width="60" height="30" as="geometry" />
        </mxCell>
        <mxCell id="OYqPRCBFjNp_nbiLwVbj-55" value="Profile" style="text;html=1;strokeColor=none;fillColor=none;align=center;verticalAlign=middle;whiteSpace=wrap;rounded=0;" parent="1" vertex="1">
          <mxGeometry x="990" y="-667" width="60" height="30" as="geometry" />
        </mxCell>
        <mxCell id="OYqPRCBFjNp_nbiLwVbj-59" value="" style="ellipse;whiteSpace=wrap;html=1;" parent="1" vertex="1">
          <mxGeometry x="985" y="-585" width="70" height="80" as="geometry" />
        </mxCell>
        <mxCell id="OYqPRCBFjNp_nbiLwVbj-60" value="Shop Name" style="rounded=1;whiteSpace=wrap;html=1;" parent="1" vertex="1">
          <mxGeometry x="900" y="-465" width="240" height="40" as="geometry" />
        </mxCell>
        <mxCell id="OYqPRCBFjNp_nbiLwVbj-61" value="Email&lt;span style=&quot;color: rgba(0, 0, 0, 0); font-family: monospace; font-size: 0px; text-align: start;&quot;&gt;%3CmxGraphModel%3E%3Croot%3E%3CmxCell%20id%3D%220%22%2F%3E%3CmxCell%20id%3D%221%22%20parent%3D%220%22%2F%3E%3CmxCell%20id%3D%222%22%20value%3D%22Name%22%20style%3D%22rounded%3D1%3BwhiteSpace%3Dwrap%3Bhtml%3D1%3B%22%20vertex%3D%221%22%20parent%3D%221%22%3E%3CmxGeometry%20x%3D%22900%22%20y%3D%22-465%22%20width%3D%22240%22%20height%3D%2240%22%20as%3D%22geometry%22%2F%3E%3C%2FmxCell%3E%3C%2Froot%3E%3C%2FmxGraphModel%3E&lt;/span&gt;" style="rounded=1;whiteSpace=wrap;html=1;" parent="1" vertex="1">
          <mxGeometry x="900" y="-410" width="240" height="40" as="geometry" />
        </mxCell>
        <mxCell id="OYqPRCBFjNp_nbiLwVbj-62" value="Phone" style="rounded=1;whiteSpace=wrap;html=1;" parent="1" vertex="1">
          <mxGeometry x="900" y="-360" width="240" height="40" as="geometry" />
        </mxCell>
        <mxCell id="OYqPRCBFjNp_nbiLwVbj-63" value="Address" style="rounded=1;whiteSpace=wrap;html=1;" parent="1" vertex="1">
          <mxGeometry x="900" y="-310" width="240" height="40" as="geometry" />
        </mxCell>
        <mxCell id="OYqPRCBFjNp_nbiLwVbj-64" value="" style="whiteSpace=wrap;html=1;rounded=1;" parent="1" vertex="1">
          <mxGeometry x="760" y="-1060" width="250" height="350" as="geometry" />
        </mxCell>
        <mxCell id="OYqPRCBFjNp_nbiLwVbj-66" value="Edit" style="text;html=1;strokeColor=none;fillColor=none;align=center;verticalAlign=middle;whiteSpace=wrap;rounded=0;" parent="1" vertex="1">
          <mxGeometry x="1088" y="-610" width="60" height="30" as="geometry" />
        </mxCell>
        <mxCell id="OYqPRCBFjNp_nbiLwVbj-67" value="Product Image(Can be multiple)" style="rounded=0;whiteSpace=wrap;html=1;" parent="1" vertex="1">
          <mxGeometry x="810" y="-1030" width="150" height="110" as="geometry" />
        </mxCell>
        <mxCell id="OYqPRCBFjNp_nbiLwVbj-68" value="Product Description" style="rounded=0;whiteSpace=wrap;html=1;" parent="1" vertex="1">
          <mxGeometry x="790" y="-900" width="190" height="110" as="geometry" />
        </mxCell>
        <mxCell id="OYqPRCBFjNp_nbiLwVbj-69" value="Accept" style="rounded=0;whiteSpace=wrap;html=1;" parent="1" vertex="1">
          <mxGeometry x="790" y="-760" width="90" height="30" as="geometry" />
        </mxCell>
        <mxCell id="OYqPRCBFjNp_nbiLwVbj-72" value="" style="edgeStyle=orthogonalEdgeStyle;rounded=0;orthogonalLoop=1;jettySize=auto;html=1;" parent="1" source="OYqPRCBFjNp_nbiLwVbj-70" target="OYqPRCBFjNp_nbiLwVbj-71" edge="1">
          <mxGeometry relative="1" as="geometry" />
        </mxCell>
        <mxCell id="OYqPRCBFjNp_nbiLwVbj-70" value="Reject" style="rounded=0;whiteSpace=wrap;html=1;" parent="1" vertex="1">
          <mxGeometry x="895" y="-760" width="90" height="30" as="geometry" />
        </mxCell>
        <mxCell id="OYqPRCBFjNp_nbiLwVbj-74" value="Accepted" style="edgeStyle=orthogonalEdgeStyle;rounded=0;orthogonalLoop=1;jettySize=auto;html=1;" parent="1" source="OYqPRCBFjNp_nbiLwVbj-71" target="OYqPRCBFjNp_nbiLwVbj-73" edge="1">
          <mxGeometry relative="1" as="geometry" />
        </mxCell>
        <mxCell id="OYqPRCBFjNp_nbiLwVbj-71" value="" style="rhombus;whiteSpace=wrap;html=1;rounded=0;" parent="1" vertex="1">
          <mxGeometry x="1070" y="-785" width="80" height="80" as="geometry" />
        </mxCell>
        <mxCell id="OYqPRCBFjNp_nbiLwVbj-73" value="adds" style="whiteSpace=wrap;html=1;rounded=0;" parent="1" vertex="1">
          <mxGeometry x="1050" y="-1140" width="210" height="265" as="geometry" />
        </mxCell>
      </root>
    </mxGraphModel>
  </diagram>
</mxfile>
